<svg width="20" height="20" viewBox="0 0 20 20" fill="none" xmlns="http://www.w3.org/2000/svg">
<g id="Img - logo instagram &#226;&#134;&#146; SVG">
<path id="Vector" d="M13.5884 3.07279C14.5062 3.07553 15.3857 3.44135 16.0347 4.09034C16.6837 4.73933 17.0495 5.61877 17.0522 6.53658V13.4634C17.0495 14.3812 16.6837 15.2607 16.0347 15.9097C15.3857 16.5587 14.5062 16.9245 13.5884 16.9272H6.66158C5.74377 16.9245 4.86433 16.5587 4.21534 15.9097C3.56635 15.2607 3.20053 14.3812 3.19779 13.4634V6.53658C3.20053 5.61877 3.56635 4.73933 4.21534 4.09034C4.86433 3.44135 5.74377 3.07553 6.66158 3.07279H13.5884ZM13.5884 1.6875H6.66158C3.99453 1.6875 1.8125 3.86953 1.8125 6.53658V13.4634C1.8125 16.1305 3.99453 18.3125 6.66158 18.3125H13.5884C16.2555 18.3125 18.4375 16.1305 18.4375 13.4634V6.53658C18.4375 3.86953 16.2555 1.6875 13.5884 1.6875Z" fill="white" stroke="white" stroke-width="0.0585938"/>
<path id="Vector_2" d="M14.6275 6.53659C14.422 6.53659 14.2211 6.47565 14.0502 6.36148C13.8793 6.2473 13.7462 6.08502 13.6675 5.89516C13.5889 5.7053 13.5683 5.49638 13.6084 5.29482C13.6485 5.09326 13.7474 4.90812 13.8928 4.7628C14.0381 4.61748 14.2232 4.51852 14.4248 4.47843C14.6263 4.43834 14.8353 4.45892 15.0251 4.53756C15.215 4.6162 15.3773 4.74938 15.4914 4.92026C15.6056 5.09113 15.6665 5.29202 15.6665 5.49753C15.6668 5.63406 15.6402 5.76931 15.588 5.89551C15.5359 6.0217 15.4594 6.13637 15.3629 6.23291C15.2663 6.32946 15.1517 6.40598 15.0255 6.45809C14.8993 6.51021 14.764 6.53688 14.6275 6.53659ZM10.125 7.22905C10.673 7.22905 11.2088 7.39157 11.6645 7.69604C12.1201 8.00052 12.4753 8.43328 12.685 8.93961C12.8948 9.44594 12.9496 10.0031 12.8427 10.5406C12.7358 11.0781 12.4719 11.5718 12.0844 11.9594C11.6968 12.3469 11.2031 12.6108 10.6656 12.7177C10.1281 12.8246 9.57093 12.7698 9.0646 12.56C8.55828 12.3503 8.12551 11.9952 7.82104 11.5395C7.51656 11.0838 7.35404 10.5481 7.35404 10C7.35483 9.26535 7.64702 8.561 8.16651 8.04151C8.68599 7.52203 9.39034 7.22984 10.125 7.22905ZM10.125 5.84376C9.30297 5.84376 8.49941 6.08752 7.81591 6.54421C7.13242 7.00091 6.5997 7.65003 6.28513 8.40948C5.97055 9.16894 5.88824 10.0046 6.04861 10.8109C6.20898 11.6171 6.60483 12.3577 7.18609 12.9389C7.76735 13.5202 8.50792 13.916 9.31416 14.0764C10.1204 14.2368 10.9561 14.1545 11.7155 13.8399C12.475 13.5253 13.1241 12.9926 13.5808 12.3091C14.0375 11.6256 14.2813 10.822 14.2813 10C14.2813 8.8977 13.8434 7.84054 13.0639 7.0611C12.2845 6.28165 11.2273 5.84376 10.125 5.84376Z" fill="white" stroke="white" stroke-width="0.0585938"/>
</g>
</svg>
