<svg width="17" height="18" viewBox="0 0 17 18" fill="none" xmlns="http://www.w3.org/2000/svg">
<path id="Vector" d="M3.72133 17.3123H0.274609V6.2129H3.72133V17.3123ZM1.99611 4.69884C0.893965 4.69884 0 3.78594 0 2.6838C7.88871e-09 2.15439 0.210304 1.64667 0.584648 1.27233C0.958992 0.897987 1.46671 0.687683 1.99611 0.687683C2.52552 0.687683 3.03323 0.897987 3.40758 1.27233C3.78192 1.64667 3.99223 2.15439 3.99223 2.6838C3.99223 3.78594 3.09789 4.69884 1.99611 4.69884ZM16.6213 17.3123H13.182V11.9092C13.182 10.6215 13.156 8.97012 11.39 8.97012C9.59797 8.97012 9.32336 10.3691 9.32336 11.8164V17.3123H5.88035V6.2129H9.18605V7.72696H9.2343C9.69445 6.85489 10.8185 5.93458 12.4955 5.93458C15.9838 5.93458 16.625 8.23165 16.625 11.2152V17.3123H16.6213Z" fill="#FAFAFA"/>
</svg>
