<svg width="25" height="20" viewBox="0 0 25 20" fill="none" xmlns="http://www.w3.org/2000/svg">
<path id="Vector" d="M24.3749 2.7513C23.484 3.1384 22.5414 3.39343 21.5769 3.50833C22.5905 2.91477 23.3528 1.97179 23.7208 0.856257C22.7625 1.41665 21.7157 1.80985 20.6254 2.01901C20.1663 1.53785 19.6141 1.15506 19.0025 0.893933C18.3908 0.632803 17.7324 0.498779 17.0674 0.500008C14.3747 0.500008 12.1957 2.6474 12.1957 5.29452C12.1938 5.66273 12.236 6.02984 12.3213 6.38801C10.3905 6.29749 8.49985 5.80494 6.77028 4.94187C5.04072 4.07879 3.51036 2.86419 2.2771 1.37579C1.84445 2.10517 1.61564 2.93737 1.61458 3.78541C1.61458 5.44791 2.48195 6.91744 3.79166 7.77837C3.01569 7.75996 2.25563 7.55458 1.57599 7.17968V7.23905C1.57599 9.56456 3.25827 11.4992 5.48483 11.9396C5.06613 12.0512 4.63466 12.1077 4.20134 12.1078C3.89387 12.1083 3.5871 12.0785 3.28549 12.0187C3.90447 13.9237 5.706 15.3091 7.84003 15.3487C6.10598 16.6851 3.97701 17.4074 1.78776 17.402C1.39916 17.4015 1.01092 17.3783 0.625 17.3328C2.85214 18.7549 5.44101 19.5071 8.08347 19.5C17.057 19.5 21.9594 12.1919 21.9594 5.85364C21.9594 5.64583 21.9539 5.43801 21.944 5.23515C22.8955 4.55831 23.7187 3.71719 24.3749 2.7513Z" fill="white" stroke="white" stroke-width="0.0585938"/>
</svg>
