<svg width="136" height="30" viewBox="0 0 136 30" fill="none" xmlns="http://www.w3.org/2000/svg">
<g opacity="0.7">
<path d="M0.264137 23.4694C0.21131 23.788 0.158482 24.2659 0.422619 25.0092C1.26786 27.2922 3.96206 28.6196 4.54316 28.885C6.76191 29.9469 8.76935 30 9.66742 30C10.09 30 11.7805 30 13.8936 29.3098C14.686 29.0443 15.8482 28.6727 17.0633 27.7701C18.2255 26.9206 18.7009 26.1241 18.8594 25.9118C18.8594 25.9118 18.8594 25.9118 18.8594 25.8587C19.0179 25.5932 19.5462 24.7437 19.3877 23.6818C19.3877 23.5225 19.1764 22.5138 18.3311 21.8766C18.3311 21.8766 16.9048 20.9209 15.32 21.7704C15.2671 21.7704 15.2143 21.8235 15.2143 21.8235C15.1086 21.9297 15.003 21.9828 15.003 21.9828C14.8445 22.1421 14.2634 22.673 14.2106 22.7261C14.2106 22.7261 13.8408 23.0447 12.8899 23.6818C12.7842 23.7349 12.6786 23.8411 12.6786 23.8411L12.6258 23.8942C12.3616 24.0535 11.8333 24.3189 11.1994 24.4782C10.724 24.5844 9.72025 24.903 8.45239 24.5844C7.39584 24.372 6.65626 23.8411 6.33929 23.6287C5.86384 23.3102 5.81102 23.1509 4.75447 22.3014C3.96206 21.6642 3.80358 21.5581 3.53944 21.505C2.58854 21.1864 1.69048 21.6642 1.58482 21.7704C1.47917 21.7173 0.475447 22.3014 0.264137 23.4694Z" fill="#297BCA"/>
<path d="M18.8594 9.66425C18.8594 7.11574 18.9122 4.51413 18.9122 1.96562C18.8594 1.75324 18.7537 1.48778 18.4896 1.16921C18.3311 0.903741 17.9085 0.372801 17.1689 0.107331C17.0104 0.0542374 16.4293 -0.105045 15.7954 0.107331C14.9502 0.372801 14.5804 1.11612 14.4747 1.2754C14.3162 1.54087 14.2634 1.80634 14.2634 1.96562C14.2634 2.07181 14.2634 2.178 14.2634 2.28418C12.8371 1.43468 11.1994 0.903741 9.40328 0.903741C4.22619 0.956835 0 5.20435 0 10.4607C0 15.717 4.22619 19.9114 9.40328 19.9114C14.5804 19.9114 18.8066 15.6639 18.8066 10.4607C18.8594 10.1952 18.8066 9.92972 18.8594 9.66425ZM9.40328 14.7082C7.02605 14.7082 5.17709 12.7968 5.17709 10.4076C5.17709 8.01834 7.07888 6.10695 9.45611 6.10695C11.8333 6.10695 13.7351 8.01834 13.7351 10.4076C13.7351 12.7968 11.7805 14.7082 9.40328 14.7082Z" fill="#297BCA"/>
<path d="M33.1684 8.47234C33.9501 8.47234 34.6373 8.63074 35.2299 8.94755C35.8225 9.25169 36.2891 9.65087 36.6295 10.1451V8.64342H39.2963V19.2502C39.2963 20.226 39.1008 21.0941 38.71 21.8544C38.3191 22.6274 37.7328 23.2357 36.951 23.6792C36.1693 24.1354 35.2236 24.3635 34.114 24.3635C32.6262 24.3635 31.4032 24.0151 30.4449 23.3181C29.4992 22.6211 28.9634 21.6707 28.8373 20.4668H31.4662C31.6049 20.9483 31.9012 21.3285 32.3551 21.6073C32.8217 21.8988 33.3827 22.0445 34.0384 22.0445C34.8075 22.0445 35.4317 21.8101 35.9108 21.3412C36.3899 20.885 36.6295 20.188 36.6295 19.2502V17.6155C36.2891 18.1097 35.8162 18.5216 35.211 18.851C34.6184 19.1805 33.9375 19.3453 33.1684 19.3453C32.2858 19.3453 31.4788 19.1172 30.7475 18.661C30.0162 18.2048 29.4362 17.5648 29.0075 16.7411C28.5914 15.9047 28.3834 14.9479 28.3834 13.8708C28.3834 12.8063 28.5914 11.8622 29.0075 11.0385C29.4362 10.2148 30.0099 9.58117 30.7286 9.13764C31.4599 8.69411 32.2732 8.47234 33.1684 8.47234ZM36.6295 13.9088C36.6295 13.2625 36.5034 12.7113 36.2512 12.2551C35.9991 11.7862 35.6586 11.4313 35.2299 11.1906C34.8012 10.9371 34.341 10.8104 33.8493 10.8104C33.3575 10.8104 32.9036 10.9308 32.4875 11.1716C32.0714 11.4123 31.731 11.7672 31.4662 12.236C31.214 12.6923 31.0879 13.2372 31.0879 13.8708C31.0879 14.5044 31.214 15.062 31.4662 15.5435C31.731 16.0124 32.0714 16.3736 32.4875 16.627C32.9162 16.8805 33.3701 17.0072 33.8493 17.0072C34.341 17.0072 34.8012 16.8868 35.2299 16.646C35.6586 16.3926 35.9991 16.0378 36.2512 15.5816C36.5034 15.1127 36.6295 14.5551 36.6295 13.9088Z" fill="#297BCA"/>
<path d="M46.535 19.3453C45.5263 19.3453 44.6185 19.1235 43.8115 18.68C43.0045 18.2238 42.3678 17.5838 41.9013 16.7601C41.4473 15.9364 41.2204 14.986 41.2204 13.9088C41.2204 12.8316 41.4536 11.8812 41.9202 11.0575C42.3993 10.2338 43.0487 9.60018 43.8682 9.15665C44.6878 8.70044 45.6019 8.47234 46.6106 8.47234C47.6193 8.47234 48.5335 8.70044 49.3531 9.15665C50.1726 9.60018 50.8157 10.2338 51.2822 11.0575C51.7613 11.8812 52.0009 12.8316 52.0009 13.9088C52.0009 14.986 51.755 15.9364 51.2633 16.7601C50.7842 17.5838 50.1285 18.2238 49.2963 18.68C48.4767 19.1235 47.5563 19.3453 46.535 19.3453ZM46.535 17.0262C47.0141 17.0262 47.4617 16.9122 47.8778 16.6841C48.3065 16.4433 48.647 16.0885 48.8991 15.6196C49.1513 15.1507 49.2774 14.5804 49.2774 13.9088C49.2774 12.9077 49.0126 12.141 48.483 11.6088C47.9661 11.0638 47.3293 10.7914 46.5728 10.7914C45.8163 10.7914 45.1795 11.0638 44.6626 11.6088C44.1582 12.141 43.9061 12.9077 43.9061 13.9088C43.9061 14.9099 44.1519 15.6829 44.6437 16.2279C45.148 16.7601 45.7785 17.0262 46.535 17.0262Z" fill="#297BCA"/>
<path d="M58.5958 19.3453C57.5871 19.3453 56.6793 19.1235 55.8723 18.68C55.0654 18.2238 54.4286 17.5838 53.9621 16.7601C53.5082 15.9364 53.2812 14.986 53.2812 13.9088C53.2812 12.8316 53.5145 11.8812 53.981 11.0575C54.4602 10.2338 55.1095 9.60018 55.9291 9.15665C56.7487 8.70044 57.6628 8.47234 58.6715 8.47234C59.6802 8.47234 60.5943 8.70044 61.4139 9.15665C62.2335 9.60018 62.8765 10.2338 63.3431 11.0575C63.8222 11.8812 64.0617 12.8316 64.0617 13.9088C64.0617 14.986 63.8159 15.9364 63.3241 16.7601C62.845 17.5838 62.1893 18.2238 61.3572 18.68C60.5376 19.1235 59.6171 19.3453 58.5958 19.3453ZM58.5958 17.0262C59.075 17.0262 59.5226 16.9122 59.9387 16.6841C60.3674 16.4433 60.7078 16.0885 60.96 15.6196C61.2122 15.1507 61.3382 14.5804 61.3382 13.9088C61.3382 12.9077 61.0735 12.141 60.5439 11.6088C60.0269 11.0638 59.3902 10.7914 58.6337 10.7914C57.8771 10.7914 57.2404 11.0638 56.7234 11.6088C56.2191 12.141 55.9669 12.9077 55.9669 13.9088C55.9669 14.9099 56.2128 15.6829 56.7045 16.2279C57.2089 16.7601 57.8393 17.0262 58.5958 17.0262Z" fill="#297BCA"/>
<path d="M65.3232 13.8708C65.3232 12.8063 65.5312 11.8622 65.9473 11.0385C66.376 10.2148 66.956 9.58117 67.6873 9.13764C68.4186 8.69411 69.2319 8.47234 70.1271 8.47234C70.808 8.47234 71.4573 8.62441 72.0752 8.92854C72.693 9.22001 73.1848 9.61286 73.5504 10.1071V5.10781H76.2361V19.1742H73.5504V17.6155C73.2226 18.1351 72.7624 18.5532 72.1697 18.8701C71.5771 19.1869 70.8899 19.3453 70.1082 19.3453C69.2256 19.3453 68.4186 19.1172 67.6873 18.661C66.956 18.2048 66.376 17.5648 65.9473 16.7411C65.5312 15.9047 65.3232 14.9479 65.3232 13.8708ZM73.5693 13.9088C73.5693 13.2625 73.4432 12.7113 73.1911 12.2551C72.9389 11.7862 72.5984 11.4313 72.1697 11.1906C71.741 10.9371 71.2808 10.8104 70.7891 10.8104C70.2973 10.8104 69.8434 10.9308 69.4273 11.1716C69.0112 11.4123 68.6708 11.7672 68.406 12.236C68.1538 12.6923 68.0278 13.2372 68.0278 13.8708C68.0278 14.5044 68.1538 15.062 68.406 15.5435C68.6708 16.0124 69.0112 16.3736 69.4273 16.627C69.856 16.8805 70.31 17.0072 70.7891 17.0072C71.2808 17.0072 71.741 16.8868 72.1697 16.646C72.5984 16.3926 72.9389 16.0378 73.1911 15.5816C73.4432 15.1127 73.5693 14.5551 73.5693 13.9088Z" fill="#297BCA"/>
<path d="M82.8318 19.3453C81.9744 19.3453 81.2052 19.1932 80.5243 18.8891C79.8435 18.5723 79.3013 18.1477 78.8978 17.6155C78.5069 17.0832 78.2926 16.494 78.2548 15.8477H80.9215C80.972 16.2532 81.1674 16.589 81.5078 16.8551C81.8609 17.1213 82.2959 17.2543 82.8128 17.2543C83.3172 17.2543 83.7081 17.1529 83.9855 16.9502C84.2755 16.7474 84.4205 16.4876 84.4205 16.1708C84.4205 15.8287 84.2439 15.5752 83.8909 15.4105C83.5504 15.2331 83.002 15.043 82.2454 14.8402C81.4637 14.6501 80.8207 14.4537 80.3163 14.251C79.8246 14.0482 79.3959 13.7377 79.0302 13.3195C78.6772 12.9013 78.5006 12.3374 78.5006 11.6278C78.5006 11.0448 78.6646 10.5126 78.9924 10.031C79.3328 9.54949 79.812 9.16932 80.4298 8.89053C81.0602 8.61174 81.7978 8.47234 82.6426 8.47234C83.8909 8.47234 84.887 8.78915 85.6309 9.42277C86.3748 10.0437 86.7846 10.8864 86.8603 11.9509H84.3259C84.2881 11.5327 84.1115 11.2032 83.7963 10.9625C83.4937 10.709 83.0839 10.5823 82.567 10.5823C82.0878 10.5823 81.7159 10.671 81.4511 10.8484C81.1989 11.0258 81.0728 11.2729 81.0728 11.5898C81.0728 11.9446 81.2494 12.217 81.6024 12.4071C81.9554 12.5845 82.5039 12.7683 83.2478 12.9584C84.0044 13.1485 84.6285 13.3449 85.1202 13.5476C85.612 13.7504 86.0344 14.0672 86.3874 14.4981C86.7531 14.9163 86.9422 15.4738 86.9548 16.1708C86.9548 16.7791 86.7846 17.324 86.4442 17.8056C86.1163 18.2871 85.6372 18.6673 85.0068 18.9461C84.3889 19.2122 83.6639 19.3453 82.8318 19.3453Z" fill="#297BCA"/>
<path d="M91.7762 10.1641C92.1167 9.68256 92.5832 9.28337 93.1758 8.96656C93.781 8.63708 94.4682 8.47234 95.2373 8.47234C96.1326 8.47234 96.9395 8.69411 97.6582 9.13764C98.3895 9.58117 98.9632 10.2148 99.3793 11.0385C99.808 11.8495 100.022 12.7936 100.022 13.8708C100.022 14.9479 99.808 15.9047 99.3793 16.7411C98.9632 17.5648 98.3895 18.2048 97.6582 18.661C96.9395 19.1172 96.1326 19.3453 95.2373 19.3453C94.4682 19.3453 93.7873 19.1869 93.1947 18.8701C92.6147 18.5532 92.1419 18.1541 91.7762 17.6725V24.1925H89.1284V8.64342H91.7762V10.1641ZM97.3178 13.8708C97.3178 13.2372 97.1854 12.6923 96.9206 12.236C96.6684 11.7672 96.328 11.4123 95.8993 11.1716C95.4832 10.9308 95.0293 10.8104 94.5375 10.8104C94.0584 10.8104 93.6045 10.9371 93.1758 11.1906C92.7597 11.4313 92.4193 11.7862 92.1545 12.2551C91.9023 12.7239 91.7762 13.2752 91.7762 13.9088C91.7762 14.5424 91.9023 15.0937 92.1545 15.5626C92.4193 16.0314 92.7597 16.3926 93.1758 16.646C93.6045 16.8868 94.0584 17.0072 94.5375 17.0072C95.0293 17.0072 95.4832 16.8805 95.8993 16.627C96.328 16.3736 96.6684 16.0124 96.9206 15.5435C97.1854 15.0747 97.3178 14.5171 97.3178 13.8708Z" fill="#297BCA"/>
<path d="M101.266 13.8708C101.266 12.8063 101.474 11.8622 101.89 11.0385C102.318 10.2148 102.892 9.58117 103.611 9.13764C104.342 8.69411 105.155 8.47234 106.051 8.47234C106.832 8.47234 107.513 8.63074 108.093 8.94755C108.686 9.26436 109.159 9.66355 109.512 10.1451V8.64342H112.179V19.1742H109.512V17.6345C109.171 18.1287 108.698 18.5406 108.093 18.8701C107.501 19.1869 106.813 19.3453 106.032 19.3453C105.149 19.3453 104.342 19.1172 103.611 18.661C102.892 18.2048 102.318 17.5648 101.89 16.7411C101.474 15.9047 101.266 14.9479 101.266 13.8708ZM109.512 13.9088C109.512 13.2625 109.386 12.7113 109.133 12.2551C108.881 11.7862 108.541 11.4313 108.112 11.1906C107.683 10.9371 107.223 10.8104 106.732 10.8104C106.24 10.8104 105.786 10.9308 105.37 11.1716C104.954 11.4123 104.613 11.7672 104.348 12.236C104.096 12.6923 103.97 13.2372 103.97 13.8708C103.97 14.5044 104.096 15.062 104.348 15.5435C104.613 16.0124 104.954 16.3736 105.37 16.627C105.798 16.8805 106.252 17.0072 106.732 17.0072C107.223 17.0072 107.683 16.8868 108.112 16.646C108.541 16.3926 108.881 16.0378 109.133 15.5816C109.386 15.1127 109.512 14.5551 109.512 13.9088Z" fill="#297BCA"/>
<path d="M114.084 13.9088C114.084 12.819 114.304 11.8685 114.746 11.0575C115.187 10.2338 115.799 9.60018 116.58 9.15665C117.362 8.70044 118.257 8.47234 119.266 8.47234C120.565 8.47234 121.636 8.80182 122.481 9.46079C123.339 10.1071 123.912 11.0195 124.202 12.198H121.346C121.195 11.7418 120.937 11.387 120.571 11.1335C120.218 10.8674 119.777 10.7344 119.247 10.7344C118.49 10.7344 117.892 11.0132 117.45 11.5707C117.009 12.1157 116.788 12.895 116.788 13.9088C116.788 14.9099 117.009 15.6893 117.45 16.2469C117.892 16.7918 118.49 17.0642 119.247 17.0642C120.319 17.0642 121.019 16.5827 121.346 15.6196H124.202C123.912 16.7601 123.339 17.6662 122.481 18.3378C121.624 19.0094 120.552 19.3453 119.266 19.3453C118.257 19.3453 117.362 19.1235 116.58 18.68C115.799 18.2238 115.187 17.5901 114.746 16.7791C114.304 15.9554 114.084 14.9986 114.084 13.9088Z" fill="#297BCA"/>
<path d="M135.882 13.6807C135.882 14.0609 135.857 14.403 135.807 14.7072H128.147C128.21 15.4675 128.475 16.0631 128.941 16.494C129.408 16.9248 129.981 17.1403 130.662 17.1403C131.646 17.1403 132.346 16.7157 132.762 15.8667H135.618C135.315 16.8805 134.735 17.7169 133.878 18.3758C133.02 19.0221 131.967 19.3453 130.719 19.3453C129.71 19.3453 128.803 19.1235 127.996 18.68C127.201 18.2238 126.577 17.5838 126.123 16.7601C125.682 15.9364 125.461 14.986 125.461 13.9088C125.461 12.819 125.682 11.8622 126.123 11.0385C126.564 10.2148 127.182 9.58117 127.977 9.13764C128.771 8.69411 129.685 8.47234 130.719 8.47234C131.715 8.47234 132.604 8.68777 133.386 9.11863C134.18 9.54949 134.792 10.1641 135.22 10.9625C135.662 11.7482 135.882 12.6542 135.882 13.6807ZM133.14 12.9204C133.127 12.236 132.881 11.6911 132.402 11.2856C131.923 10.8674 131.337 10.6583 130.643 10.6583C129.988 10.6583 129.433 10.8611 128.979 11.2666C128.538 11.6595 128.267 12.2107 128.166 12.9204H133.14Z" fill="#297BCA"/>
</g>
</svg>
