<svg width="48" height="48" viewBox="0 0 48 48" fill="none" xmlns="http://www.w3.org/2000/svg">
<g id="Vector" filter="url(#filter0_d_746_431)">
<path d="M4 5C4 2.23858 6.23858 0 9 0H39C41.7614 0 44 2.23858 44 5V35C44 37.7614 41.7614 40 39 40H9C6.23858 40 4 37.7614 4 35V5Z" fill="url(#paint0_linear_746_431)"/>
<path d="M5 6C5 3.23858 7.23858 1 10 1H36C38.7614 1 41 3.23858 41 6V31C41 33.7614 38.7614 36 36 36H10C7.23858 36 5 33.7614 5 31V6Z" fill="#1C2025"/>
<path d="M16.472 10.592H29.288V12.2H26.528V26H24.632V18.104H20.384C20.096 18.104 19.896 18.176 19.784 18.32C19.672 18.464 19.616 18.704 19.616 19.04C19.616 19.6 19.72 20.192 19.928 20.816H18.344C17.896 19.92 17.672 19.088 17.672 18.32C17.672 17.12 18.368 16.52 19.76 16.52H24.632V12.2H16.472V10.592Z" fill="url(#paint1_linear_746_431)"/>
</g>
<defs>
<filter id="filter0_d_746_431" x="0" y="0" width="48" height="48" filterUnits="userSpaceOnUse" color-interpolation-filters="sRGB">
<feFlood flood-opacity="0" result="BackgroundImageFix"/>
<feColorMatrix in="SourceAlpha" type="matrix" values="0 0 0 0 0 0 0 0 0 0 0 0 0 0 0 0 0 0 127 0" result="hardAlpha"/>
<feOffset dy="4"/>
<feGaussianBlur stdDeviation="2"/>
<feComposite in2="hardAlpha" operator="out"/>
<feColorMatrix type="matrix" values="0 0 0 0 0 0 0 0 0 0 0 0 0 0 0 0 0 0 0.25 0"/>
<feBlend mode="normal" in2="BackgroundImageFix" result="effect1_dropShadow_746_431"/>
<feBlend mode="normal" in="SourceGraphic" in2="effect1_dropShadow_746_431" result="shape"/>
</filter>
<linearGradient id="paint0_linear_746_431" x1="24" y1="0" x2="24" y2="40" gradientUnits="userSpaceOnUse">
<stop stop-color="#87C0FA"/>
<stop offset="1" stop-color="#898BFE"/>
</linearGradient>
<linearGradient id="paint1_linear_746_431" x1="23" y1="1" x2="23" y2="39" gradientUnits="userSpaceOnUse">
<stop stop-color="#C2DBFF"/>
<stop offset="1" stop-color="#CAC9FF"/>
</linearGradient>
</defs>
</svg>
